<svg width="23" height="80" viewBox="0 0 23 80" fill="none" xmlns="http://www.w3.org/2000/svg">
<path d="M3.05239 40.4702L2.80184 40L3.05239 39.5298L21.652 4.62184L21.652 4.62179C21.8714 4.21014 22.0047 3.61247 21.9999 2.9664C21.995 2.31936 21.8525 1.73326 21.6313 1.34035L21.6313 1.34034C21.523 1.14786 21.427 1.05651 21.3746 1.01926C21.3684 1.01479 21.3629 1.0112 21.3582 1.00833C21.3109 1.03455 21.2001 1.11945 21.0623 1.37809L21.0623 1.37815L1.34797 38.3782L1.34792 38.3783C1.13313 38.7813 1 39.3651 1 40C1 40.6349 1.13313 41.2187 1.34792 41.6217L1.34797 41.6218L21.0623 78.6218L21.0624 78.6219C21.2001 78.8805 21.3108 78.9654 21.3582 78.9917C21.3628 78.9888 21.3683 78.9852 21.3746 78.9807C21.4269 78.9435 21.5229 78.8521 21.6313 78.6596L21.6314 78.6594C21.8525 78.2667 21.995 77.6807 21.9999 77.0337C22.0047 76.3877 21.8714 75.79 21.652 75.3783L22.4574 74.9491L21.652 75.3783L3.05239 40.4702ZM21.337 0.997561C21.337 0.997603 21.3377 0.997847 21.3389 0.998166L21.337 0.997561ZM21.381 0.997953C21.3825 0.997656 21.3831 0.997439 21.3831 0.997404L21.381 0.997953ZM21.3831 79.0026C21.3831 79.0026 21.3825 79.0024 21.3811 79.0021L21.3831 79.0026ZM21.3388 79.0019C21.3376 79.0022 21.337 79.0024 21.337 79.0024L21.3388 79.0019Z" fill="#DFD0B1" stroke="#DFD0B1" stroke-width="2"/>
</svg>
