<svg width="23" height="80" viewBox="0 0 23 80" fill="none" xmlns="http://www.w3.org/2000/svg">
<path d="M19.9476 40.4702L20.1982 40L19.9476 39.5298L1.34801 4.62184L1.34798 4.62179C1.12861 4.21014 0.995287 3.61247 1.00013 2.9664C1.00497 2.31936 1.1475 1.73326 1.36866 1.34035L1.36867 1.34034C1.47701 1.14786 1.57302 1.05651 1.62537 1.01926C1.63164 1.01479 1.6371 1.0112 1.64177 1.00833C1.68914 1.03455 1.79987 1.11945 1.93766 1.37809L1.9377 1.37815L21.652 38.3782L21.6521 38.3783C21.8669 38.7813 22 39.3651 22 40C22 40.6349 21.8669 41.2187 21.6521 41.6217L21.652 41.6218L1.9377 78.6218L1.93765 78.6219C1.7999 78.8805 1.68919 78.9654 1.64181 78.9917C1.63715 78.9888 1.63169 78.9852 1.62544 78.9807C1.57308 78.9435 1.47705 78.8521 1.3687 78.6596L1.36863 78.6594C1.1475 78.2667 1.00497 77.6807 1.00013 77.0337C0.995287 76.3877 1.1286 75.79 1.34799 75.3783L0.542637 74.9491L1.34801 75.3783L19.9476 40.4702ZM1.66298 0.997561C1.66298 0.997603 1.66234 0.997847 1.66109 0.998166L1.66298 0.997561ZM1.61898 0.997953C1.61755 0.997656 1.61685 0.997439 1.61686 0.997404L1.61898 0.997953ZM1.61687 79.0026C1.61686 79.0026 1.61753 79.0024 1.61891 79.0021L1.61687 79.0026ZM1.6612 79.0019C1.66242 79.0022 1.66304 79.0024 1.66305 79.0024L1.6612 79.0019Z" fill="#DFD0B1" stroke="#DFD0B1" stroke-width="2"/>
</svg>
